<?xml version="1.0" encoding="utf-8"?>
<!-- Generator: Adobe Illustrator 27.4.0, SVG Export Plug-In . SVG Version: 6.00 Build 0)  -->
<svg version="1.1" xmlns="http://www.w3.org/2000/svg" xmlns:xlink="http://www.w3.org/1999/xlink" x="0px" y="0px"
	 viewBox="0 0 1024 430.9" style="enable-background:new 0 0 1024 430.9;" xml:space="preserve">
<style type="text/css">
	.st0{fill:none;}
	.st1{display:none;}
	.st2{fill:#4E4E76;}
	.st3{fill:url(#Fave_dinosaurs);}
</style>
<pattern  width="175.1" height="271.9" patternUnits="userSpaceOnUse" id="Fave_dinosaurs" viewBox="34.8 -337.6 175.1 271.9" style="overflow:visible;">
	<g>
		<rect x="34.8" y="-337.6" class="st0" width="175.1" height="271.9"/>
		<g>
			
				<image style="overflow:visible;" width="256" height="256" xlink:href="triceratopsBlue.png"  transform="matrix(0.1756 0 0 0.1756 143.5506 -80.8989)">
			</image>
			
				<image style="overflow:visible;" width="256" height="256" xlink:href="stegosaurus.png"  transform="matrix(0.1756 0 0 0.1756 124.4494 -133.7079)">
			</image>
			
				<image style="overflow:visible;" width="256" height="256" xlink:href="pteranodon.png"  transform="matrix(0.1311 0 0 0.1311 198.7416 -118.9663)">
			</image>
			
				<image style="overflow:visible;" width="256" height="256" xlink:href="brachiosaurus.png"  transform="matrix(0.2672 0 0 0.2672 175.1461 -68.4045)">
			</image>
		</g>
		<g>
			
				<image style="overflow:visible;" width="256" height="256" xlink:href="triceratopsBlue.png"  transform="matrix(0.1053 0 0 0.1139 74.0225 -132.5235)">
			</image>
			
				<image style="overflow:visible;" width="256" height="256" xlink:href="stegosaurus.png"  transform="matrix(0.1756 0 0 0.1756 77.3933 -98.8764)">
			</image>
			
				<image style="overflow:visible;" width="256" height="256" xlink:href="pteranodon.png"  transform="matrix(0.1311 0 0 0.1311 23.5955 -118.9663)">
			</image>
			
				<image style="overflow:visible;" width="256" height="256" xlink:href="brachiosaurus.png"  transform="matrix(0.2672 0 0 0.2672 0 -68.4045)">
			</image>
		</g>
		<g>
			
				<image style="overflow:visible;" width="256" height="256" xlink:href="triceratopsBlue.png"  transform="matrix(0.1756 0 0 0.1756 55.9775 -216.8539)">
			</image>
			
				<image style="overflow:visible;" width="256" height="256" xlink:href="triceratopsBlue.png"  transform="matrix(0.1053 0 0 0.1139 172.8315 -168.4786)">
			</image>
			
				<image style="overflow:visible;" width="256" height="256" xlink:href="triceratopsBlue.png"  transform="matrix(0.1053 0 0 0.1139 161.5955 -268.4786)">
			</image>
			
				<image style="overflow:visible;" width="256" height="256" xlink:href="stegosaurus.png"  transform="matrix(0.1756 0 0 0.1756 164.9663 -234.8315)">
			</image>
			
				<image style="overflow:visible;" width="256" height="256" xlink:href="stegosaurus.png"  transform="matrix(0.1756 0 0 0.1756 36.8764 -269.6629)">
			</image>
			
				<image style="overflow:visible;" width="256" height="256" xlink:href="pteranodon.png"  transform="matrix(0.1311 0 0 0.1311 111.1685 -254.9213)">
			</image>
			
				<image style="overflow:visible;" width="256" height="256" xlink:href="pteranodon.png"  transform="matrix(0.1311 0 0 0.1311 34.764 -167.2809)">
			</image>
			
				<image style="overflow:visible;" width="256" height="256" xlink:href="brachiosaurus.png"  transform="matrix(0.2672 0 0 0.2672 87.573 -204.3596)">
			</image>
		</g>
		<g>
			
				<image style="overflow:visible;" width="256" height="256" xlink:href="triceratopsBlue.png"  transform="matrix(0.1756 0 0 0.1756 143.5506 -352.809)">
			</image>
			
				<image style="overflow:visible;" width="256" height="256" xlink:href="pteranodon.png"  transform="matrix(0.1311 0 0 0.1311 122.3371 -303.236)">
			</image>
			
				<image style="overflow:visible;" width="256" height="256" xlink:href="brachiosaurus.png"  transform="matrix(0.2672 0 0 0.2672 175.1461 -340.3146)">
			</image>
		</g>
		<g>
			
				<image style="overflow:visible;" width="256" height="256" xlink:href="triceratopsBlue.png"  transform="matrix(0.1053 0 0 0.1139 85.2584 -304.4337)">
			</image>
			
				<image style="overflow:visible;" width="256" height="256" xlink:href="stegosaurus.png"  transform="matrix(0.1756 0 0 0.1756 77.3933 -370.7865)">
			</image>
			
				<image style="overflow:visible;" width="256" height="256" xlink:href="brachiosaurus.png"  transform="matrix(0.2672 0 0 0.2672 0 -340.3146)">
			</image>
		</g>
	</g>
</pattern>
<g id="Layer_1" class="st1">
	
		<image style="display:inline;overflow:visible;" width="256" height="256" xlink:href="triceratopsBlue.png"  transform="matrix(0.1756 0 0 0.1756 222.2472 217.4382)">
	</image>
	
		<image style="display:inline;overflow:visible;" width="256" height="256" xlink:href="triceratopsBlue.png"  transform="matrix(0.1053 0 0 0.1139 339.1011 265.8135)">
	</image>
	
		<image style="display:inline;overflow:visible;" width="256" height="256" xlink:href="triceratopsBlue.png"  transform="matrix(0.1053 0 0 0.1139 327.8652 165.8135)">
	</image>
	
		<image style="display:inline;overflow:visible;" width="256" height="256" xlink:href="stegosaurus.png"  transform="matrix(0.1756 0 0 0.1756 331.236 199.4607)">
	</image>
	
		<image style="display:inline;overflow:visible;" width="256" height="256" xlink:href="stegosaurus.png"  transform="matrix(0.1756 0 0 0.1756 203.1461 164.6292)">
	</image>
	
		<image style="display:inline;overflow:visible;" width="256" height="256" xlink:href="pteranodon.png"  transform="matrix(0.1311 0 0 0.1311 277.4382 179.3708)">
	</image>
	
		<image style="display:inline;overflow:visible;" width="256" height="256" xlink:href="pteranodon.png"  transform="matrix(0.1311 0 0 0.1311 201.0337 267.0112)">
	</image>
	
		<image style="display:inline;overflow:visible;" width="256" height="256" xlink:href="brachiosaurus.png"  transform="matrix(0.2672 0 0 0.2672 253.8427 229.9326)">
	</image>
</g>
<g id="Layer_2">
	<g>
		<rect x="-1.4" y="-1.2" class="st2" width="1025.4" height="430.8"/>
		<path d="M1023.5-0.7v429.8H-0.9V-0.7H1023.5 M1024.5-1.7H-1.9v431.8h1026.4V-1.7L1024.5-1.7z"/>
	</g>
</g>
<g id="Layer_3">
	<rect x="-3.6" y="-2.8" class="st3" width="1028.1" height="434.8"/>
</g>
</svg>
